# xmcd
#
# Track frame offsets: 
#        150
#        14781
#        32765
#        52264
#        70283
#        89819
#        112190
#        128055
#        145356
#        161136
#        175853
#        193176
#        214735
#        233100
#        250386
#        266845
#        283709
#        299804
#        317569
#        335085
#
# Disc length: 4743 seconds
#
# Revision: 1
# Processed by: cddbd v1.5.2PL0 Copyright (c) Steve Scherf et al.
# Submitted via: ExactAudioCopy v1.0b3
#
DISCID=57128514
DTITLE=Various Artist - Anthems Hip Hop II [CD 3)
DYEAR=2012
DGENRE=Hip-Hop
TTITLE0=50 Cent - In Da Club
TTITLE1=Ol' Dirty Bastard feat. Kelis - Got Your Money
TTITLE2=Ice Cube feat. Mack 10 and Ms. Toi - You Can Do It
TTITLE3=OutKast - So Fresh, So Clean
TTITLE4=Xzibit - Hey Now (Mean Muggin)
TTITLE5=Nas and Bravehearts - Oochie Wally (Remix)
TTITLE6=Mystikal feat. Nivea - Danger (Been So Long)
TTITLE7=DMX - Ruff Ryders' Anthem
TTITLE8=X-Ecutioners feat. M.O.P. - Let It Bang
TTITLE9=EPMD, Redman and Das EFX - Serious
TTITLE10=De La Soul feat. Yummy - Much More
TTITLE11=Pete Rock feat. CL Smooth - Back On Da Block
TTITLE12=Brand Nubian - Don't Let It Go to Your Head
TTITLE13=SkinnyMan - I'll Be Surprised
TTITLE14=Ty feat. Roots Manuva - So You Want Morre? (Refix)
TTITLE15=Dizzee Rascal - Fix Up, Look Sharp
TTITLE16=Wretch 32 feat. L - Traktor
TTITLE17=Jim Jones - We Fly High (Ballin')
TTITLE18=J. Cole - Work Out
TTITLE19=Royce Da 5'9'' and Eminem - Writer's Block
EXTD=
EXTT0=
EXTT1=
EXTT2=
EXTT3=
EXTT4=
EXTT5=
EXTT6=
EXTT7=
EXTT8=
EXTT9=
EXTT10=
EXTT11=
EXTT12=
EXTT13=
EXTT14=
EXTT15=
EXTT16=
EXTT17=
EXTT18=
EXTT19=
PLAYORDER=
